<mxfile host="app.diagrams.net" modified="2023-05-06T12:03:05.028Z" agent="Mozilla/5.0 (Windows NT 10.0; Win64; x64) AppleWebKit/537.36 (KHTML, like Gecko) Chrome/112.0.0.0 Safari/537.36 Edg/112.0.1722.68" etag="gVEHbCS6juPxyY4KaYbH" version="21.2.9" type="device">
  <diagram name="Page-1" id="JTmERNCMm7uamx7KYtzp">
    <mxGraphModel dx="794" dy="509" grid="1" gridSize="10" guides="1" tooltips="1" connect="1" arrows="1" fold="1" page="1" pageScale="1" pageWidth="850" pageHeight="1100" math="0" shadow="0">
      <root>
        <mxCell id="0" />
        <mxCell id="1" parent="0" />
        <mxCell id="V-o1fGtL6thpqo705aMa-11" value="" style="ellipse;whiteSpace=wrap;html=1;aspect=fixed;" parent="1" vertex="1">
          <mxGeometry x="260" y="20" width="545" height="545" as="geometry" />
        </mxCell>
        <mxCell id="V-o1fGtL6thpqo705aMa-9" value="" style="ellipse;whiteSpace=wrap;html=1;aspect=fixed;" parent="1" vertex="1">
          <mxGeometry x="355" y="25" width="420" height="420" as="geometry" />
        </mxCell>
        <mxCell id="V-o1fGtL6thpqo705aMa-1" value="" style="whiteSpace=wrap;html=1;aspect=fixed;" parent="1" vertex="1">
          <mxGeometry x="500" y="130" width="210" height="210" as="geometry" />
        </mxCell>
        <mxCell id="V-o1fGtL6thpqo705aMa-2" value="Máy chủ" style="text;html=1;strokeColor=none;fillColor=none;align=center;verticalAlign=middle;whiteSpace=wrap;rounded=0;" parent="1" vertex="1">
          <mxGeometry x="500" y="130" width="60" height="30" as="geometry" />
        </mxCell>
        <mxCell id="V-o1fGtL6thpqo705aMa-5" value="main.py" style="ellipse;whiteSpace=wrap;html=1;aspect=fixed;" parent="1" vertex="1">
          <mxGeometry x="520" y="180" width="50" height="50" as="geometry" />
        </mxCell>
        <mxCell id="lhwBuiXh_x7Nknb-HYmF-1" style="edgeStyle=orthogonalEdgeStyle;rounded=0;orthogonalLoop=1;jettySize=auto;html=1;exitX=0.5;exitY=0;exitDx=0;exitDy=0;" edge="1" parent="1" source="V-o1fGtL6thpqo705aMa-6" target="V-o1fGtL6thpqo705aMa-5">
          <mxGeometry relative="1" as="geometry" />
        </mxCell>
        <mxCell id="V-o1fGtL6thpqo705aMa-6" value="broker&lt;br&gt;(emqx)" style="ellipse;whiteSpace=wrap;html=1;aspect=fixed;" parent="1" vertex="1">
          <mxGeometry x="520" y="275" width="50" height="50" as="geometry" />
        </mxCell>
        <mxCell id="V-o1fGtL6thpqo705aMa-7" value="database&lt;br&gt;(sqlite)" style="ellipse;whiteSpace=wrap;html=1;aspect=fixed;" parent="1" vertex="1">
          <mxGeometry x="630" y="270" width="55" height="55" as="geometry" />
        </mxCell>
        <mxCell id="V-o1fGtL6thpqo705aMa-8" value="end-devices&lt;br&gt;(sensors + actuators)" style="rounded=0;whiteSpace=wrap;html=1;" parent="1" vertex="1">
          <mxGeometry x="380" y="275" width="90" height="50" as="geometry" />
        </mxCell>
        <mxCell id="V-o1fGtL6thpqo705aMa-10" value="mạng local" style="text;html=1;strokeColor=none;fillColor=none;align=center;verticalAlign=middle;whiteSpace=wrap;rounded=0;" parent="1" vertex="1">
          <mxGeometry x="530" y="30" width="60" height="30" as="geometry" />
        </mxCell>
        <mxCell id="V-o1fGtL6thpqo705aMa-12" value="mạng public" style="text;html=1;strokeColor=none;fillColor=none;align=center;verticalAlign=middle;whiteSpace=wrap;rounded=0;" parent="1" vertex="1">
          <mxGeometry x="280" y="220" width="60" height="40" as="geometry" />
        </mxCell>
        <mxCell id="V-o1fGtL6thpqo705aMa-13" value="backend" style="rounded=0;whiteSpace=wrap;html=1;" parent="1" vertex="1">
          <mxGeometry x="485" y="470" width="120" height="60" as="geometry" />
        </mxCell>
        <mxCell id="V-o1fGtL6thpqo705aMa-15" value="logging" style="ellipse;whiteSpace=wrap;html=1;aspect=fixed;" parent="1" vertex="1">
          <mxGeometry x="630" y="177.5" width="55" height="55" as="geometry" />
        </mxCell>
        <mxCell id="V-o1fGtL6thpqo705aMa-21" value="" style="endArrow=classic;html=1;rounded=0;exitX=1;exitY=0.5;exitDx=0;exitDy=0;entryX=0;entryY=0.5;entryDx=0;entryDy=0;" parent="1" source="V-o1fGtL6thpqo705aMa-8" target="V-o1fGtL6thpqo705aMa-6" edge="1">
          <mxGeometry width="50" height="50" relative="1" as="geometry">
            <mxPoint x="660" y="410" as="sourcePoint" />
            <mxPoint x="710" y="360" as="targetPoint" />
          </mxGeometry>
        </mxCell>
        <mxCell id="V-o1fGtL6thpqo705aMa-22" value="" style="endArrow=classic;html=1;rounded=0;exitX=0.5;exitY=1;exitDx=0;exitDy=0;entryX=0.5;entryY=0;entryDx=0;entryDy=0;" parent="1" source="V-o1fGtL6thpqo705aMa-6" target="V-o1fGtL6thpqo705aMa-13" edge="1">
          <mxGeometry width="50" height="50" relative="1" as="geometry">
            <mxPoint x="520" y="410" as="sourcePoint" />
            <mxPoint x="570" y="360" as="targetPoint" />
          </mxGeometry>
        </mxCell>
        <mxCell id="V-o1fGtL6thpqo705aMa-23" value="" style="endArrow=classic;html=1;rounded=0;exitX=1;exitY=0.5;exitDx=0;exitDy=0;entryX=0;entryY=0.5;entryDx=0;entryDy=0;" parent="1" source="V-o1fGtL6thpqo705aMa-5" target="V-o1fGtL6thpqo705aMa-15" edge="1">
          <mxGeometry width="50" height="50" relative="1" as="geometry">
            <mxPoint x="590" y="290" as="sourcePoint" />
            <mxPoint x="640" y="240" as="targetPoint" />
          </mxGeometry>
        </mxCell>
        <mxCell id="lhwBuiXh_x7Nknb-HYmF-3" value="" style="endArrow=classic;html=1;rounded=0;exitX=1;exitY=1;exitDx=0;exitDy=0;entryX=0;entryY=0;entryDx=0;entryDy=0;" edge="1" parent="1" source="V-o1fGtL6thpqo705aMa-5" target="V-o1fGtL6thpqo705aMa-7">
          <mxGeometry width="50" height="50" relative="1" as="geometry">
            <mxPoint x="580" y="215" as="sourcePoint" />
            <mxPoint x="640" y="215" as="targetPoint" />
          </mxGeometry>
        </mxCell>
      </root>
    </mxGraphModel>
  </diagram>
</mxfile>
